{"title":"Pacific Rim 2013 BRRip 720p x264 AAC - PRiSTiNE [P2PDL]","uid":9014421,"size":900039471,"categoryP":"video","categoryS":"hd___movies","magnet":"?xt=urn:btih:aef201b94e8831c5c13e6c9ed48cbfc08eac337b&amp;dn=Pacific+Rim+2013+BRRip+720p+x264+AAC+-+PRiSTiNE+%5BP2PDL%5D&amp;tr=udp%3A%2F%2Ftracker.openbittorrent.com%3A80&amp;tr=udp%3A%2F%2Fopen.demonii.com%3A1337&amp;tr=udp%3A%2F%2Ftracker.coppersurfer.tk%3A6969&amp;tr=udp%3A%2F%2Fexodus.desync.com%3A6969","seeders":1,"leechers":1,"uploader":"ValidusVyto","files":-1,"time":1381169825,"description":"_______ Visit us at our Semi Public Bittorrent Community ________\n  &lt;a href=&quot;\nhttp://p2pdl.com&quot; rel=&quot;nofollow&quot; target=&quot;_NEW&quot;&gt;\nhttp://p2pdl.com&lt;/a&gt;  _____________________________ &lt;a href=&quot; http://p2pdl.com&quot; rel=&quot;nofollow&quot; target=&quot;_NEW&quot;&gt; http://p2pdl.com&lt;/a&gt;\n\n\n\nPacific Rim 2013 BRRip 720p x264 AAC - PRiSTiNE\n\n\nGenre: Action | Adventure | Fantasy \nPlot: As a war between humankind and monstrous sea creatures wages on, a former pilot\nand a trainee are paired up to drive a seemingly obsolete special weapon in a desperate\neffort to save the world from the apocalypse. \t\t\t\t\t\t\t\t\t\t\t\t\t\t\t\nDirector: Guillermo del Toro\nStars: Idris Elba, Charlie Hunnam, Rinko Kikuchi.\nRated: PG-13 for sequences of intense sci-fi action and violence throughout, and brief\nlanguage.\n\nIMDb: &lt;a href=&quot;\nhttp://www.imdb.com/title/tt1663662/&quot; rel=&quot;nofollow&quot; target=&quot;_NEW&quot;&gt;\nhttp://www.imdb.com/title/tt1663662/&lt;/a&gt;\n\nTrailer:\n\n\nFormat                         : MPEG-4\nFile size                      : 850 MiB\nDuration                       : 2h 11mn\nOverall bit rate               : 905 Kbps\n\nVideo\nFormat                         : AVC\nWidth                          : 1 280 pixels\nHeight                         : 720 pixels\nDisplay aspect ratio           : 16:9\nFrame rate mode                : Constant\nFrame rate                     : 23.976 fps\nBit depth                      : 10 bits\nStream size                    : 773 MiB (91%)\nWriting library                : x264 core 138 r2358\n\nAudio\nFormat                         : AAC\nBit rate mode                  : Variable\nBit rate                       : 79.9 Kbps\nChannel count                  : 2 channels\nChannel positions              : Front: L R\nSampling rate                  : 48.0 KHz\nStream size                    : 75.0 MiB (9%)\n\nSubtitle                       : Yes(English)\n &lt;a href=&quot;\nhttp://someimage.com/V8ouyvt&quot; rel=&quot;nofollow&quot; target=&quot;_NEW&quot;&gt;\nhttp://someimage.com/V8ouyvt&lt;/a&gt; &lt;a href=&quot;\nhttp://someimage.com/41VYGIc&quot; rel=&quot;nofollow&quot; target=&quot;_NEW&quot;&gt;\nhttp://someimage.com/41VYGIc&lt;/a&gt; &lt;a href=&quot;\nhttp://someimage.com/NXQWQxY&quot; rel=&quot;nofollow&quot; target=&quot;_NEW&quot;&gt;\nhttp://someimage.com/NXQWQxY&lt;/a&gt; &lt;a href=&quot;\nhttp://someimage.com/afvtelP&quot; rel=&quot;nofollow&quot; target=&quot;_NEW&quot;&gt;\nhttp://someimage.com/afvtelP&lt;/a&gt; &lt;a href=&quot;\nhttp://someimage.com/r7Nc62w&quot; rel=&quot;nofollow&quot; target=&quot;_NEW&quot;&gt;\nhttp://someimage.com/r7Nc62w&lt;/a&gt; &lt;a href=&quot;\nhttp://someimage.com/voPpgBe&quot; rel=&quot;nofollow&quot; target=&quot;_NEW&quot;&gt;\nhttp://someimage.com/voPpgBe&lt;/a&gt; &lt;a href=&quot;\nhttp://someimage.com/M9hqWYc&quot; rel=&quot;nofollow&quot; target=&quot;_NEW&quot;&gt;\nhttp://someimage.com/M9hqWYc&lt;/a&gt; &lt;a href=&quot;\nhttp://someimage.com/Dl0DrlX&quot; rel=&quot;nofollow&quot; target=&quot;_NEW&quot;&gt;\nhttp://someimage.com/Dl0DrlX&lt;/a&gt; &lt;a href=&quot;\nhttp://someimage.com/wxCNvgP&quot; rel=&quot;nofollow&quot; target=&quot;_NEW&quot;&gt;\nhttp://someimage.com/wxCNvgP&lt;/a&gt; &lt;a href=&quot;\nhttp://someimage.com/s9cNoS2&quot; rel=&quot;nofollow&quot; target=&quot;_NEW&quot;&gt;\nhttp://someimage.com/s9cNoS2&lt;/a&gt;\n\n----------------------------------------------------------------------------------------------------\n\n\nEncoded using revolutionary 10bit encoding, which enables us to provide you more crispier \nand sharper images at small sizes, just make sure you follow our instructions without a fault.\nRecommend to you to use latest version of VLC player. Install K-Lite Codec Pack or shark007 codecs\nin case of any kind of problem in playback (For non-VLC Media Player users). Alternatively, install\nCore AVC codecs, the fastest decoder that there is coupled with Community Center Codec Pack and play\non Windows Media Player Classic. Check sample to be sure.\nEnjoy!\n\nEncoder Notes:Looking For Early Access To Anything You Can Provide DVDScr, R5, DVDR, BluRay, Direct\nAudio, Music Releases and Seedboxes. We require dedicated servers, so as to do more \nand fast releases of movies.\nIf You Got anything to offer please contact us at &quot;&lt;a class=&quot;__cf_email__&quot; href=&quot;/cdn-cgi/l/email-protection&quot; data-cfemail=&quot;acdcdecbecc4d9dfc482cfc3c1&quot;&gt;[email&amp;#160;protected]&lt;/a&gt;&lt;script cf-hash='f9e31' type=&quot;text/javascript&quot;&gt;\n/* &lt;![CDATA[ */!function(){try{var t=&quot;currentScript&quot;in document?document.currentScript:function(){for(var t=document.getElementsByTagName(&quot;script&quot;),e=t.length;e--;)if(t[e].getAttribute(&quot;cf-hash&quot;))return t[e]}();if(t&amp;&amp;t.previousSibling){var e,r,n,i,c=t.previousSibling,a=c.getAttribute(&quot;data-cfemail&quot;);if(a){for(e=&quot;&quot;,r=parseInt(a.substr(0,2),16),n=2;a.length-n;n+=2)i=parseInt(a.substr(n,2),16)^r,e+=String.fromCharCode(i);e=document.createTextNode(e),c.parentNode.replaceChild(e,c)}}}catch(u){}}();/* ]]&gt; */&lt;/script&gt;&quot;.\n\nFacebook Fan Page:  \nSearch P2PDL on FB and hit like!!!\n\nFor more of our team uploads visit @                                             &lt;a href=&quot; http://thepiratebay.se/user/vitamin_x&quot; rel=&quot;nofollow&quot; target=&quot;_NEW&quot;&gt; http://thepiratebay.se/user/vitamin_x&lt;/a&gt;","torrent":{"xt":"urn:btih:aef201b94e8831c5c13e6c9ed48cbfc08eac337b","amp;dn":"Pacific+Rim+2013+BRRip+720p+x264+AAC+-+PRiSTiNE+%5BP2PDL%5D","amp;tr":["udp%3A%2F%2Ftracker.openbittorrent.com%3A80","udp%3A%2F%2Fopen.demonii.com%3A1337","udp%3A%2F%2Ftracker.coppersurfer.tk%3A6969","udp%3A%2F%2Fexodus.desync.com%3A6969"],"infoHash":"aef201b94e8831c5c13e6c9ed48cbfc08eac337b","infoHashBuffer":{"type":"Buffer","data":[174,242,1,185,78,136,49,197,193,62,108,158,212,140,191,192,142,172,51,123]},"announce":[],"urlList":[]}}